<mxfile host="app.diagrams.net" modified="2020-12-22T07:07:32.187Z" agent="5.0 (Windows NT 10.0; Win64; x64) AppleWebKit/537.36 (KHTML, like Gecko) Chrome/87.0.4280.88 Safari/537.36" etag="_hIcr1rVBMIpXvonn1kv" version="14.0.5" type="github">
  <diagram id="p0JoOHy8fHQ44TICWDfj" name="Page-1">
    <mxGraphModel dx="3084" dy="1340" grid="1" gridSize="11" guides="1" tooltips="1" connect="1" arrows="1" fold="1" page="1" pageScale="1" pageWidth="850" pageHeight="1100" math="0" shadow="0">
      <root>
        <mxCell id="0" />
        <mxCell id="1" parent="0" />
        <mxCell id="XAKFu06S3zxfb-YEafIQ-50" value="&amp;nbsp;ABAP programming model for SAP Fiori" style="rounded=0;whiteSpace=wrap;html=1;fillColor=#eeeeee;strokeColor=#36393d;fontSize=45;" vertex="1" parent="1">
          <mxGeometry x="-560" y="200" width="540" height="190" as="geometry" />
        </mxCell>
        <mxCell id="XAKFu06S3zxfb-YEafIQ-52" value="" style="endArrow=none;html=1;strokeWidth=6;jumpSize=100;rounded=0;dashed=1;" edge="1" parent="1">
          <mxGeometry width="50" height="50" relative="1" as="geometry">
            <mxPoint x="-770" y="570" as="sourcePoint" />
            <mxPoint x="800" y="570" as="targetPoint" />
          </mxGeometry>
        </mxCell>
        <mxCell id="XAKFu06S3zxfb-YEafIQ-54" value="RESTful ABAP programming model" style="rounded=0;whiteSpace=wrap;html=1;fillColor=#eeeeee;strokeColor=#36393d;fontSize=45;" vertex="1" parent="1">
          <mxGeometry x="70" y="200" width="540" height="190" as="geometry" />
        </mxCell>
        <mxCell id="XAKFu06S3zxfb-YEafIQ-55" value="Consumption Layer&amp;nbsp;" style="text;html=1;strokeColor=none;fillColor=none;align=center;verticalAlign=middle;whiteSpace=wrap;rounded=0;strokeWidth=1;fontSize=45;rotation=-90;" vertex="1" parent="1">
          <mxGeometry x="-770" y="250" width="40" height="40" as="geometry" />
        </mxCell>
        <mxCell id="XAKFu06S3zxfb-YEafIQ-57" value="CR CDS TP View" style="rounded=0;whiteSpace=wrap;html=1;strokeWidth=1;fontSize=45;fillColor=#b1ddf0;strokeColor=#10739e;" vertex="1" parent="1">
          <mxGeometry x="-570" y="450" width="550" height="70" as="geometry" />
        </mxCell>
      </root>
    </mxGraphModel>
  </diagram>
</mxfile>
